<?xml version="1.0" encoding="UTF-8"?>
<svg id="Layer_2" data-name="Layer 2" xmlns="http://www.w3.org/2000/svg" xmlns:xlink="http://www.w3.org/1999/xlink" viewBox="0 0 1184.58 319.86">
  <defs>
    <style>
      .cls-1 {
        fill: none;
      }

      .cls-2 {
        fill: url(#linear-gradient-2);
      }

      .cls-3 {
        fill: url(#linear-gradient);
      }

      .cls-4 {
        clip-path: url(#clippath-1);
      }

      .cls-5 {
        fill: #fafafa;
      }

      .cls-6 {
        clip-path: url(#clippath);
      }
    </style>
    <clipPath id="clippath">
      <path class="cls-1" d="M73.09,4.49C16.76,4.49-18.33,65.58,10.05,114.23l38.15,65.41,93.44.36-55.43-95h98.89L232.45,4.49H73.09Z"/>
    </clipPath>
    <linearGradient id="linear-gradient" x1="1025.41" y1="7088.88" x2="1027.43" y2="7088.88" gradientTransform="translate(-99977.33 691241.41) scale(97.5 -97.5)" gradientUnits="userSpaceOnUse">
      <stop offset="0" stop-color="#007aff"/>
      <stop offset="1" stop-color="#0046db"/>
    </linearGradient>
    <clipPath id="clippath-1">
      <path class="cls-1" d="M240.96,180.79h-98.89l-47.35,80.51h159.36c56.32,0,91.42-61.1,63.04-109.75l-38.15-65.4-93.44-.36,55.43,95Z"/>
    </clipPath>
    <linearGradient id="linear-gradient-2" x1="1052.31" y1="6968.19" x2="1054.33" y2="6968.19" gradientTransform="translate(121795.88 -803996.16) rotate(-180) scale(115.41 -115.41)" xlink:href="#linear-gradient"/>
  </defs>
  <g id="Layer_1-2" data-name="Layer 1">
    <g>
      <g>
        <g class="cls-6">
          <rect class="cls-3" x="-18.33" y="4.49" width="250.78" height="175.51"/>
        </g>
        <g class="cls-4">
          <rect class="cls-2" x="94.72" y="85.79" width="250.78" height="175.51"/>
        </g>
      </g>
      <g>
        <path class="cls-5" d="M439.6,199.79c6.24,5.02,14.85,7.53,25.79,7.53,6.25,0,11.77-1,16.58-3.01,4.8-2.01,8.54-4.63,11.22-7.87,2.68-3.24,4.02-6.87,4.02-10.89,0-4.47-1.79-8.21-5.36-11.22-3.57-3.01-8.15-5.47-13.73-7.37-5.59-1.89-13.29-4.07-23.11-6.53-16.52-4.24-30.14-8.59-40.86-13.06-10.72-4.46-19.99-11.55-27.8-21.26-7.82-9.71-11.72-22.72-11.72-39.02,0-13.4,3.96-25.62,11.89-36.68,7.92-11.05,18.7-19.7,32.32-25.96,13.62-6.24,28.58-9.38,44.88-9.38s31.65,2.79,44.72,8.37c13.06,5.58,23.49,13.35,31.32,23.28,7.81,9.93,12.72,21.38,14.74,34.33l-57.61,11.73c-1.79-8.93-5.69-15.96-11.72-21.1-6.03-5.13-13.85-7.7-23.45-7.7-5.58,0-10.5.83-14.73,2.51-4.25,1.68-7.54,4.02-9.88,7.04-2.35,3.01-3.52,6.42-3.52,10.21,0,4.25,1.73,7.76,5.19,10.55,3.46,2.79,7.81,5.08,13.06,6.87,5.24,1.79,12.67,3.9,22.27,6.36,16.74,4.24,30.59,8.65,41.53,13.23,10.94,4.58,20.43,11.95,28.47,22.11,8.04,10.16,12.06,23.84,12.06,41.03,0,13.4-4.08,25.63-12.22,36.68-8.16,11.05-19.26,19.76-33.33,26.13-14.07,6.36-29.7,9.55-46.89,9.55-25.91,0-47.28-6.03-64.14-18.09-16.86-12.06-26.85-28.02-29.98-47.9l57.61-11.72c2.01,9.16,6.14,16.24,12.39,21.27"/>
        <path class="cls-5" d="M563.69,78.71h33.49V31.81l53.59-16.74v63.64h41.87v46.89h-41.87v60.29c0,6.7,1.68,11.72,5.03,15.07,3.35,3.35,8.37,5.02,15.07,5.02h21.77v46.89h-21.77c-25.01,0-43.54-5.8-55.6-17.41-12.06-11.61-18.09-29.25-18.09-52.92v-56.94h-33.49v-46.89Z"/>
        <polygon class="cls-5" points="792.17 252.87 748.63 252.87 700.07 78.71 757.68 78.71 799.88 252.87 792.17 252.87 840.07 78.71 894.33 78.71 828.01 319.86 773.75 319.86 792.17 252.87"/>
        <rect class="cls-5" x="904.74" y="5.02" width="53.59" height="247.85"/>
        <path class="cls-5" d="M992.93,9.38c6.25-6.25,13.73-9.38,22.44-9.38s16.19,3.13,22.44,9.38c6.25,6.25,9.38,13.73,9.38,22.44s-3.13,15.91-9.38,22.27c-6.25,6.36-13.73,9.55-22.44,9.55s-16.19-3.18-22.44-9.55c-6.25-6.36-9.38-13.79-9.38-22.27s3.12-16.19,9.38-22.44M988.58,78.7h53.59v174.17h-53.59V78.7Z"/>
        <path class="cls-5" d="M1055.63,78.71h33.5V31.81l53.59-16.74v63.64h41.87v46.89h-41.87v60.29c0,6.7,1.68,11.72,5.03,15.07,3.35,3.35,8.37,5.02,15.08,5.02h21.77v46.89h-21.77c-25.01,0-43.55-5.8-55.6-17.41-12.06-11.61-18.08-29.25-18.08-52.92v-56.94h-33.5v-46.89Z"/>
      </g>
    </g>
  </g>
</svg>